<svg width="150" height="150" viewBox="0 0 150 150" fill="none" xmlns="http://www.w3.org/2000/svg">
<g clip-path="url(#clip0_192_12)">
<rect width="150" height="150" fill="white"/>
<rect width="150" height="150" fill="black"/>
<path d="M62.4829 166V76H87.4438V166H62.4829ZM75.022 64.3984C71.311 64.3984 68.1274 63.168 65.4712 60.707C62.854 58.207 61.5454 55.2187 61.5454 51.7422C61.5454 48.3047 62.854 45.3555 65.4712 42.8945C68.1274 40.3945 71.311 39.1445 75.022 39.1445C78.7329 39.1445 81.897 40.3945 84.5142 42.8945C87.1704 45.3555 88.4985 48.3047 88.4985 51.7422C88.4985 55.2187 87.1704 58.207 84.5142 60.707C81.897 63.168 78.7329 64.3984 75.022 64.3984Z" fill="white"/>
</g>
<defs>
<clipPath id="clip0_192_12">
<rect width="150" height="150" fill="white"/>
</clipPath>
</defs>
</svg>
